<?xml version="1.0" encoding="UTF-8"?>
<svg version="1.1" xmlns="http://www.w3.org/2000/svg" width="100" height="100">
<path d="M0 0 C8.64822802 6.87119486 15.44311132 18.01837448 17 29 C18.40895106 46.55709566 15.56638733 59.95954698 4.4140625 73.99609375 C-3.81286908 83.00558711 -15.56118495 88.6401856 -27.6484375 89.3125 C-44.13318085 89.87527929 -57.29779856 86.1831071 -69.75 74.8125 C-80.88341536 62.87619411 -83.80272194 49.59143924 -83.34375 33.85546875 C-82.66010765 21.18611097 -76.33281061 9.26446012 -67.0703125 0.625 C-46.64754218 -15.40494803 -20.73790664 -15.44661826 0 0 Z " fill="#E6E0F4" transform="translate(83,11)"/>
<path d="M0 0 C2.64 0 5.28 0 8 0 C8 0.99 8 1.98 8 3 C6.68 3 5.36 3 4 3 C4 3.9075 4 4.815 4 5.75 C3 9 3 9 1.29296875 10.32421875 C-4.07152263 13.16073089 -4.07152263 13.16073089 -7.12109375 12.6328125 C-7.74113281 12.42398437 -8.36117187 12.21515625 -9 12 C-9.7425 11.814375 -10.485 11.62875 -11.25 11.4375 C-11.8275 11.293125 -12.405 11.14875 -13 11 C-13.6814823 12.89179203 -13.6814823 12.89179203 -14 15 C-13.34 15.66 -12.68 16.32 -12 17 C-12.34291631 21.11499569 -13.79442121 24.53409047 -16 28 C-18.6875 28.875 -18.6875 28.875 -21 29 C-21.495 31.475 -21.495 31.475 -22 34 C-19.69 34.33 -17.38 34.66 -15 35 C-14.4654744 36.24420647 -13.94791389 37.49570936 -13.4375 38.75 C-13.14746094 39.44609375 -12.85742188 40.1421875 -12.55859375 40.859375 C-11.91256361 43.33507092 -12.20049752 44.60149257 -13 47 C-13.185625 47.7425 -13.37125 48.485 -13.5625 49.25 C-13.706875 49.8275 -13.85125 50.405 -14 51 C-12.10820797 51.6814823 -12.10820797 51.6814823 -10 52 C-9.34 51.34 -8.68 50.68 -8 50 C-4.17226914 50.42530343 -0.6243277 51.73569964 3 53 C3.33 55.31 3.66 57.62 4 60 C5.32 60 6.64 60 8 60 C8 61.65 8 63.3 8 65 C5.69 65 3.38 65 1 65 C0.34 62.36 -0.32 59.72 -1 57 C-4.40320934 56.32326553 -4.40320934 56.32326553 -8 56 C-8.66 56.66 -9.32 57.32 -10 58 C-13.57490748 57.90338088 -15.03333435 56.97391225 -17.875 54.75 C-20 52 -20 52 -19.875 49.25 C-19 47 -19 47 -18 46 C-18.28730055 43.66055264 -18.61936779 41.3260857 -19 39 C-20.98 38.67 -22.96 38.34 -25 38 C-25 33.71 -25 29.42 -25 25 C-23.02 24.67 -21.04 24.34 -19 24 C-17.80011955 18.71800407 -17.80011955 18.71800407 -20 14 C-19.89570746 10.87122383 -18.73421899 9.66777374 -16.75 7.1875 C-14 5 -14 5 -11.5 5.125 C-10.675 5.41375 -9.85 5.7025 -9 6 C-4.9942451 6.96691692 -4.9942451 6.96691692 -1 6 C-0.67 4.02 -0.34 2.04 0 0 Z " fill="#925BFE" transform="translate(43,18)"/>
<path d="M0 0 C3.96 0 7.92 0 12 0 C12 1.98 12 3.96 12 6 C17.30424134 5.89602122 17.30424134 5.89602122 21.5625 3.375 C22.036875 2.92125 22.51125 2.4675 23 2 C26.6875 2.3125 26.6875 2.3125 30 3 C30.33 3.99 30.66 4.98 31 6 C31.66 6 32.32 6 33 6 C33.3125 8.25 33.3125 8.25 33 11 C30.53998778 13.60058434 28.92681156 14.84553141 25.375 15.4375 C22.59419376 14.92524622 21.65415939 14.26358653 20 12 C20 11.34 20 10.68 20 10 C16.37 10 12.74 10 9 10 C9 8.02 9 6.04 9 4 C6.03 4 3.06 4 0 4 C0 2.68 0 1.36 0 0 Z " fill="#925BFE" transform="translate(50,52)"/>
<path d="M0 0 C6.25882353 -0.36108597 6.25882353 -0.36108597 9.4375 1.1875 C11 3 11 3 11.25 5.6875 C11.1675 6.450625 11.085 7.21375 11 8 C10.34 8 9.68 8 9 8 C8.34 9.32 7.68 10.64 7 12 C4.1875 12.1875 4.1875 12.1875 1 12 C0.525625 11.505 0.05125 11.01 -0.4375 10.5 C-2.06427786 8.63216882 -2.06427786 8.63216882 -5.5 8.625 C-8.94304337 8.60530103 -8.94304337 8.60530103 -10.39453125 10.51171875 C-12 12 -12 12 -14.48046875 12.29296875 C-15.37378906 12.25816406 -16.26710938 12.22335938 -17.1875 12.1875 C-18.08855469 12.16042969 -18.98960938 12.13335937 -19.91796875 12.10546875 C-20.60503906 12.07066406 -21.29210938 12.03585938 -22 12 C-22 10.68 -22 9.36 -22 8 C-20.01432292 7.83723958 -18.02864583 7.67447917 -16.04296875 7.51171875 C-13.89994741 7.16739776 -13.89994741 7.16739776 -12.53125 5.46875 C-11 4 -11 4 -8.73828125 3.70703125 C-7.93777344 3.74183594 -7.13726562 3.77664062 -6.3125 3.8125 C-5.10013672 3.85310547 -5.10013672 3.85310547 -3.86328125 3.89453125 C-3.24839844 3.92933594 -2.63351563 3.96414062 -2 4 C-1.34 2.68 -0.68 1.36 0 0 Z " fill="#915AFE" transform="translate(72,35)"/>
<path d="M0 0 C1.79133978 -0.05391993 3.58313899 -0.09275571 5.375 -0.125 C6.37273438 -0.14820312 7.37046875 -0.17140625 8.3984375 -0.1953125 C11 0 11 0 13 2 C15.3054614 2.33979748 17.57962823 2.44150726 19.90625 2.55859375 C22 3 22 3 24 6 C23.625 9.6875 23.625 9.6875 23 13 C22.01 13.33 21.02 13.66 20 14 C20 14.66 20 15.32 20 16 C17.6875 16.25 17.6875 16.25 15 16 C11.76038394 13.0003555 11.04520919 9.18083674 10 5 C6.37 4.67 2.74 4.34 -1 4 C-0.67 2.68 -0.34 1.36 0 0 Z " fill="#9059FE" transform="translate(51,67)"/>
<path d="M0 0 C1.91015625 0.23046875 1.91015625 0.23046875 3.91015625 2.23046875 C4.28515625 5.66796875 4.28515625 5.66796875 3.91015625 9.23046875 C2.34765625 11.16796875 2.34765625 11.16796875 -0.08984375 12.23046875 C-2.42281808 12.27139812 -4.756896 12.27288598 -7.08984375 12.23046875 C-8.07984375 12.89046875 -9.06984375 13.55046875 -10.08984375 14.23046875 C-12.7890625 14.42578125 -12.7890625 14.42578125 -15.77734375 14.35546875 C-17.26814453 14.32839844 -17.26814453 14.32839844 -18.7890625 14.30078125 C-19.54832031 14.27757812 -20.30757812 14.254375 -21.08984375 14.23046875 C-21.08984375 12.91046875 -21.08984375 11.59046875 -21.08984375 10.23046875 C-20.39117187 10.16988281 -19.6925 10.10929687 -18.97265625 10.046875 C-17.60753906 9.92119141 -17.60753906 9.92119141 -16.21484375 9.79296875 C-15.30992188 9.71175781 -14.405 9.63054688 -13.47265625 9.546875 C-11.07873514 9.3605759 -11.07873514 9.3605759 -9.08984375 8.23046875 C-8.38493108 5.9084035 -7.71771946 3.57453807 -7.08984375 1.23046875 C-5.19495423 -0.66442077 -2.51845229 0.05027763 0 0 Z " fill="#915AFE" transform="translate(71.08984375,17.76953125)"/>
<path d="M0 0 C-0.33 1.32 -0.66 2.64 -1 4 C-2.6396875 4.37125 -2.6396875 4.37125 -4.3125 4.75 C-7.88774181 5.72580989 -7.88774181 5.72580989 -9.9375 7.5625 C-11.60023843 11.37701756 -11.77252959 14.91871159 -11 19 C-7.96009734 23.20221839 -4.9711768 24.72830361 0 26 C0 26.99 0 27.98 0 29 C-7.76785714 29.66964286 -7.76785714 29.66964286 -11.375 26.75 C-16.18409607 21.71189935 -16.495093 17.75778904 -16.38671875 10.921875 C-15.79584641 6.45750624 -14.37904235 4.91826385 -11 2 C-7.53571026 -0.54047914 -4.18972863 -0.16114341 0 0 Z " fill="#945EFE" transform="translate(51,35)"/>
<path d="M0 0 C1.98 0.495 1.98 0.495 4 1 C3.67 2.32 3.34 3.64 3 5 C1.68 4.67 0.36 4.34 -1 4 C-0.67 2.68 -0.34 1.36 0 0 Z " fill="#DACDF5" transform="translate(74,58)"/>
<path d="M0 0 C0.99 0.33 1.98 0.66 3 1 C2.67 2.32 2.34 3.64 2 5 C0.68 4.67 -0.64 4.34 -2 4 C-1.34 2.68 -0.68 1.36 0 0 Z " fill="#DDD1F5" transform="translate(75,38)"/>
<path d="M0 0 C0.99 0.33 1.98 0.66 3 1 C2.67 2.32 2.34 3.64 2 5 C1.01 5 0.02 5 -1 5 C-0.67 3.35 -0.34 1.7 0 0 Z " fill="#E0D6F4" transform="translate(68,73)"/>
<path d="M0 0 C0.99 0 1.98 0 3 0 C2.67 1.65 2.34 3.3 2 5 C1.01 4.67 0.02 4.34 -1 4 C-0.67 2.68 -0.34 1.36 0 0 Z " fill="#E0D6F4" transform="translate(68,21)"/>
</svg>
